<?xml version="1.0" encoding="UTF-8" standalone="no"?>
<svg width="27px" height="27px" viewBox="0 0 27 27" version="1.1" xmlns="http://www.w3.org/2000/svg" xmlns:xlink="http://www.w3.org/1999/xlink">
    <!-- Generator: Sketch 3.8.3 (29802) - http://www.bohemiancoding.com/sketch -->
    <title>Fill 6 + Fill 10</title>
    <desc>Created with Sketch.</desc>
    <defs></defs>
    <g id="Page-1" stroke="none" stroke-width="1" fill="none" fill-rule="evenodd">
        <g id="2-UI-controls" transform="translate(-87.000000, -2941.000000)">
            <g id="Messages-Copy" transform="translate(68.000000, 2718.000000)">
                <g id="Fill-6-+-Fill-10" transform="translate(20.000000, 224.000000)">
                    <path d="M12.5676471,24.85 C5.73137255,24.85 0.190196078,19.3088235 0.190196078,12.472549 C0.190196078,5.63676471 5.73137255,0.0950980392 12.5676471,0.0950980392 C19.4034314,0.0950980392 24.945098,5.63676471 24.945098,12.472549 C24.945098,19.3088235 19.4034314,24.85 12.5676471,24.85 Z" id="Fill-6" stroke="#F45353"></path>
                    <polyline id="Fill-10" fill="#F45353" points="17.0455882 9.27156863 15.7686275 7.99411765 12.5676471 11.1955882 9.36617647 7.99411765 8.08921569 9.27156863 11.2901961 12.472549 8.08921569 15.6740196 9.36617647 16.9509804 12.5676471 13.75 15.7686275 16.9509804 17.0455882 15.6740196 13.8446078 12.472549 17.0455882 9.27156863"></polyline>
                </g>
            </g>
        </g>
    </g>
</svg>