<?xml version="1.0" encoding="UTF-8" standalone="no"?>
<svg width="27px" height="27px" viewBox="0 0 27 27" version="1.1" xmlns="http://www.w3.org/2000/svg" xmlns:xlink="http://www.w3.org/1999/xlink">
    <!-- Generator: Sketch 3.7.2 (28276) - http://www.bohemiancoding.com/sketch -->
    <title>Fill 7 + Fill 11 + Fill 12</title>
    <desc>Created with Sketch.</desc>
    <defs></defs>
    <g id="Symbols" stroke="none" stroke-width="1" fill="none" fill-rule="evenodd">
        <g id="upload" transform="translate(-110.000000, -716.000000)">
            <g id="Fill-7-+-Fill-11-+-Fill-12" transform="translate(111.000000, 717.000000)">
                <path d="M24.945098,12.472549 C24.945098,19.3088235 19.4034314,24.85 12.5676471,24.85 C5.73137255,24.85 0.190196078,19.3088235 0.190196078,12.472549 C0.190196078,5.63676471 5.73137255,0.0950980392 12.5676471,0.0950980392 C19.4034314,0.0950980392 24.945098,5.63676471 24.945098,12.472549" id="Fill-7" stroke="#3B9ECF"></path>
                <polyline id="Fill-11" fill="#3B9ECF" points="14.029902 15.8137255 14.029902 10.0612745 11.0377451 10.0612745 11.0377451 11.2583333 12.0852941 11.2583333 12.0852941 15.8137255 11.0377451 15.8137255 11.0377451 17.0107843 15.077451 17.0107843 15.077451 15.8137255 14.029902 15.8137255"></polyline>
                <polygon id="Fill-15" fill="#3B9ECF" points="12.0566094 6.69845291 14.0585867 6.69845291 14.0585867 8.8504902 12.0566094 8.8504902"></polygon>
            </g>
        </g>
    </g>
</svg>