<?xml version="1.0" encoding="UTF-8"?>
<svg width="48px" height="48px" viewBox="0 0 48 48" version="1.1" xmlns="http://www.w3.org/2000/svg" xmlns:xlink="http://www.w3.org/1999/xlink">
    <!-- Generator: Sketch 50.2 (55047) - http://www.bohemiancoding.com/sketch -->
    <title>Icons/circle_warning</title>
    <desc>Created with Sketch.</desc>
    <defs></defs>
    <g id="Icons/circle_warning" stroke="none" stroke-width="1" fill="none" fill-rule="evenodd">
        <g id="circle_warning">
            <polygon id="grid" points="0 0 48 0 48 48 0 48"></polygon>
            <path d="M24,48 C10.745166,48 0,37.2548339 0,24 C0,10.745166 10.745166,0 24,0 C37.2548339,0 48,10.745166 48,24 C48,37.2548339 37.2548339,48 24,48 Z M24,45 C35.5979797,45 45,35.5979797 45,24 C45,12.4020203 35.5979797,3 24,3 C12.4020203,3 3,12.4020203 3,24 C3,35.5979797 12.4020203,45 24,45 Z" id="circle" fill="#E0A84F" fill-rule="nonzero"></path>
            <path d="M21.7,30.5 L26.3,30.5 L26.3,35.4 L21.7,35.4 L21.7,30.5 Z M21.7,12.5 L26.3,12.5 L26.3,26.4 L21.7,26.4 L21.7,12.5 Z" id="exclamationmark" fill="#E0A74F" fill-rule="nonzero"></path>
        </g>
    </g>
</svg>