<?xml version="1.0" encoding="UTF-8"?>
<svg width="30px" height="30px" viewBox="0 0 30 30" version="1.1" xmlns="http://www.w3.org/2000/svg" xmlns:xlink="http://www.w3.org/1999/xlink">
    <!-- Generator: Sketch 46.2 (44496) - http://www.bohemiancoding.com/sketch -->
    <title>Information circle</title>
    <desc>Created with Sketch.</desc>
    <defs></defs>
    <g id="Style" stroke="none" stroke-width="1" fill="none" fill-rule="evenodd">
        <g id="Icons" transform="translate(-270.000000, -810.000000)">
            <g id="Information-circle" transform="translate(270.000000, 810.000000)">
                <g id="information-copy">
                    <polygon id="Shape" points="0 0 30 0 30 30 0 30"></polygon>
                    <polyline id="Shape" fill="#3B9ECF" fill-rule="nonzero" points="16.375 20.4375 16.375 12.1875 12.125 12.1875 12.125 13.875 13.625 13.875 13.625 20.4375 12.125 20.4375 12.125 22.1875 17.875 22.1875 17.875 20.4375 16.375 20.4375"></polyline>
                    <rect id="Rectangle-path" fill="#3B9ECF" fill-rule="nonzero" x="13.5625" y="7.8125" width="2.875" height="3.125"></rect>
                </g>
                <path d="M15,30 C6.71572875,30 0,23.2842712 0,15 C0,6.71572875 6.71572875,0 15,0 C23.2842712,0 30,6.71572875 30,15 C30,23.2842712 23.2842712,30 15,30 Z M15,28.125 C22.2487373,28.125 28.125,22.2487373 28.125,15 C28.125,7.75126266 22.2487373,1.875 15,1.875 C7.75126266,1.875 1.875,7.75126266 1.875,15 C1.875,22.2487373 7.75126266,28.125 15,28.125 Z" id="Oval" fill="#3B9ECF" fill-rule="nonzero"></path>
            </g>
        </g>
    </g>
</svg>