<?xml version="1.0" encoding="utf-8"?>
<!-- Generator: Adobe Illustrator 21.0.2, SVG Export Plug-In . SVG Version: 6.00 Build 0)  -->
<svg version="1.1" id="Layer_1" xmlns="http://www.w3.org/2000/svg" xmlns:xlink="http://www.w3.org/1999/xlink" x="0px" y="0px"
	 viewBox="0 0 48 48" style="enable-background:new 0 0 48 48;" xml:space="preserve">
<style type="text/css">
	.st0{fill:none;}
	.st1{fill:#FDFDFD;}
</style>
<path class="st0" d="M0,0h48v48H0V0z"/>
<path class="st1" d="M26.4,24L37,13.4c0.7-0.7,0.7-1.7,0-2.4s-1.7-0.7-2.4,0L24,21.6L13.4,11.1c-0.7-0.7-1.7-0.7-2.4,0
	s-0.7,1.7,0,2.4L21.6,24L11.1,34.6c-0.7,0.7-0.7,1.7,0,2.4c0.3,0.3,0.8,0.5,1.2,0.5s0.9-0.2,1.2-0.5L24,26.4L34.6,37
	c0.3,0.3,0.8,0.5,1.2,0.5s0.9-0.2,1.2-0.5c0.7-0.7,0.7-1.7,0-2.4L26.4,24z"/>
</svg>
