<?xml version="1.0" encoding="utf-8"?>
<!-- Generator: Adobe Illustrator 22.0.0, SVG Export Plug-In . SVG Version: 6.00 Build 0)  -->
<svg version="1.1" id="Layer_1" xmlns="http://www.w3.org/2000/svg" xmlns:xlink="http://www.w3.org/1999/xlink" x="0px" y="0px"
	 viewBox="0 0 102.5169983 45" style="enable-background:new 0 0 102.5169983 45;" xml:space="preserve">
<rect x="31.263382" y="16.4815445" style="fill:#00C7B1;" width="2.8637147" height="12.9524555"/>
<rect x="50.9894066" y="16.4815445" style="fill:#00C7B1;" width="2.8637147" height="12.9524555"/>
<polygon style="fill:#00C7B1;" points="39.833374,29.4340019 42.6434937,25.3655872 45.4536018,29.4340019 48.7798119,29.4340019 
	44.3065948,22.9577656 48.7798119,16.4815445 45.4536018,16.4815445 42.6434937,20.5499592 39.833374,16.4815445 
	36.507164,16.4815445 40.980381,22.9577656 36.507164,29.4340019 "/>
<polygon style="fill:#00C7B1;" points="28.8929901,19.0973377 28.8929901,16.4815445 21.9089413,16.4815445 20.1412296,16.4815445 
	19.0452271,16.4815445 19.0452271,29.4340019 21.9089413,29.4340019 21.9089413,24.4205112 28.082943,24.4205112 
	28.082943,21.8047333 21.9089413,21.8047333 21.9089413,19.0973377 "/>
<path style="fill:#00C7B1;" d="M83.4717865,22.9543018c0-3.7010937-3.0910797-6.7014141-6.9041214-6.7014141
	c-3.8130264,0-6.9041061,3.0003204-6.9041061,6.7014141s3.0910797,6.7014294,6.9041061,6.7014294
	C80.3807068,29.6557312,83.4717865,26.6553955,83.4717865,22.9543018z M72.6280136,22.9543018
	c0-2.2166634,1.6112213-4.0200577,3.9396515-4.0200577s3.8508148,1.8033943,3.8508148,4.0200577
	s-1.5223846,4.0200577-3.8508148,4.0200577S72.6280136,25.1709652,72.6280136,22.9543018z"/>
<path style="fill:#00C7B1;" d="M63.3207474,18.9342594c1.3141708,0,2.3711548,0.5748119,3.0430069,1.4738121l1.9919891-2.0365849
	c-1.2595901-1.303257-3.0487061-2.1185989-5.034996-2.1185989c-3.8130264,0-6.9041023,3.0003204-6.9041023,6.7014141
	s3.0910759,6.7014294,6.9041023,6.7014294c2.0598221,0,3.9077454-0.8765965,5.1727295-2.2652035l-2.0146942-2.0598068
	c-0.662468,0.9944611-1.7640381,1.6436386-3.1580353,1.6436386c-2.3284264,0-3.9396477-1.8033943-3.9396477-4.0200577
	S60.992321,18.9342594,63.3207474,18.9342594z"/>
</svg>
